<svg xmlns="http://www.w3.org/2000/svg" xmlns:xlink="http://www.w3.org/1999/xlink" version="1.1" x="0px" y="0px" viewBox="0 0 100 100" enable-background="new 0 0 100 100" xml:space="preserve"><g><g><path d="M45.357,70.939H6.523C5.682,70.939,5,70.258,5,69.417V30.583c0-0.841,0.682-1.522,1.523-1.522h38.834    c0.84,0,1.521,0.683,1.521,1.522v38.833C46.879,70.259,46.197,70.939,45.357,70.939z M8.046,67.895h35.788V32.105H8.046V67.895z"></path></g><path d="M93.479,70.939H54.645c-0.842,0-1.521-0.682-1.521-1.522V30.583c0-0.841,0.681-1.522,1.521-1.522h38.834   c0.842,0,1.521,0.683,1.521,1.522v38.833C95,70.259,94.318,70.939,93.479,70.939z M56.167,67.895h35.787V32.105H56.167V67.895z"></path><g><g><defs><rect id="n" x="54.645" y="30.583" width="38.834" height="38.833"></rect></defs><clipPath id="m"><use xlink:href="#n" overflow="visible"></use></clipPath><g clip-path="url(#m)"><g><rect x="82.863" y="22.274" transform="matrix(-0.7067 -0.7075 0.7075 -0.7067 115.809 123.1601)" width="1.141" height="30.602"></rect></g><g><rect x="78.565" y="17.975" transform="matrix(-0.7075 -0.7067 0.7067 -0.7075 111.6122 112.7465)" width="1.143" height="30.604"></rect></g><g><rect x="74.264" y="13.678" transform="matrix(-0.7075 -0.7067 0.7067 -0.7075 107.3052 102.3673)" width="1.143" height="30.602"></rect></g><g><rect x="69.968" y="9.38" transform="matrix(-0.7071 -0.7071 0.7071 -0.7071 102.9665 92.0119)" width="1.142" height="30.602"></rect></g><g><rect x="65.671" y="5.082" transform="matrix(-0.7073 -0.7069 0.7069 -0.7073 98.6875 81.6254)" width="1.142" height="30.602"></rect></g><g><rect x="51.048" y="32.053" transform="matrix(-0.708 -0.7063 0.7063 -0.708 63.4384 96.2477)" width="1.142" height="5.91"></rect></g><g><rect x="80.714" y="20.124" transform="matrix(-0.7067 -0.7075 0.7075 -0.7067 113.6631 117.9716)" width="1.141" height="30.602"></rect></g><g><rect x="76.416" y="15.826" transform="matrix(-0.7075 -0.7067 0.7067 -0.7075 109.4609 107.5553)" width="1.141" height="30.602"></rect></g><g><rect x="72.118" y="11.528" transform="matrix(-0.7063 -0.708 0.708 -0.7063 105.0325 97.2385)" width="1.142" height="30.602"></rect></g><g><rect x="67.819" y="7.229" transform="matrix(-0.7077 -0.7065 0.7065 -0.7077 100.8764 86.7933)" width="1.142" height="30.604"></rect></g><g><rect x="63.521" y="2.932" transform="matrix(-0.7071 -0.7071 0.7071 -0.7071 96.5194 76.4464)" width="1.142" height="30.604"></rect></g><g><rect x="48.897" y="29.905" transform="matrix(-0.7071 -0.7071 0.7071 -0.7071 61.2129 91.073)" width="1.142" height="5.908"></rect></g></g></g><g><defs><rect id="l" x="54.645" y="30.583" width="38.834" height="38.833"></rect></defs><clipPath id="k"><use xlink:href="#l" overflow="visible"></use></clipPath><g clip-path="url(#k)"><g><defs><rect id="j" x="54.645" y="30.583" width="38.834" height="38.833"></rect></defs><defs><rect id="h" x="54.645" y="30.583" width="38.834" height="38.833"></rect></defs><clipPath id="i"><use xlink:href="#j" overflow="visible"></use></clipPath><clipPath id="b" clip-path="url(#i)"><use xlink:href="#h" overflow="visible"></use></clipPath><g clip-path="url(#b)"><g><g><rect x="104.348" y="43.764" transform="matrix(-0.7071 -0.7071 0.7071 -0.7071 137.3406 175.0192)" width="1.141" height="30.603"></rect></g><g><rect x="100.056" y="39.466" transform="matrix(-0.7063 -0.708 0.708 -0.7063 132.9222 164.6856)" width="1.142" height="30.602"></rect></g><g><rect x="95.757" y="35.166" transform="matrix(-0.7067 -0.7075 0.7075 -0.7067 128.6938 154.2869)" width="1.141" height="30.602"></rect></g><g><rect x="91.457" y="30.869" transform="matrix(-0.7071 -0.7071 0.7071 -0.7071 124.4544 143.8925)" width="1.142" height="30.603"></rect></g><g><rect x="87.16" y="26.571" transform="matrix(-0.7071 -0.7071 0.7071 -0.7071 120.1593 133.5148)" width="1.144" height="30.601"></rect></g><g><rect x="72.537" y="53.542" transform="matrix(-0.7075 -0.7067 0.7067 -0.7075 84.9081 148.1342)" width="1.141" height="5.91"></rect></g><g><rect x="102.21" y="41.614" transform="matrix(-0.7067 -0.7075 0.7075 -0.7067 135.1443 169.8546)" width="1.141" height="30.601"></rect></g><g><rect x="97.906" y="37.316" transform="matrix(-0.7071 -0.7071 0.7071 -0.7071 130.9057 159.4573)" width="1.142" height="30.603"></rect></g><g><rect x="93.608" y="33.018" transform="matrix(-0.7075 -0.7067 0.7067 -0.7075 126.6687 149.0597)" width="1.141" height="30.602"></rect></g><g><rect x="89.316" y="28.719" transform="matrix(-0.7067 -0.7075 0.7075 -0.7067 122.2629 138.7263)" width="1.141" height="30.602"></rect></g><g><rect x="85.013" y="24.422" transform="matrix(-0.7075 -0.7067 0.7067 -0.7075 118.0656 128.3079)" width="1.141" height="30.602"></rect></g><g><rect x="70.388" y="51.394" transform="matrix(-0.7067 -0.7075 0.7075 -0.7067 82.6507 142.9616)" width="1.141" height="5.909"></rect></g></g></g><g clip-path="url(#b)"><g><defs><rect id="g" x="54.645" y="30.583" width="38.834" height="38.833"></rect></defs><clipPath id="f"><use xlink:href="#g" overflow="visible"></use></clipPath><g clip-path="url(#f)"><g><g><g><rect x="61.369" y="43.763" transform="matrix(-0.7075 -0.7067 0.7067 -0.7075 64.023 144.6264)" width="1.14" height="30.604"></rect></g><g><rect x="57.078" y="39.466" transform="matrix(-0.7075 -0.7067 0.7067 -0.7075 59.7339 134.2556)" width="1.141" height="30.603"></rect></g><g><rect x="52.776" y="35.168" transform="matrix(-0.708 -0.7063 0.7063 -0.708 55.4705 123.8748)" width="1.142" height="30.602"></rect></g><g><rect x="48.478" y="30.87" transform="matrix(-0.7071 -0.7071 0.7071 -0.7071 51.0847 113.5018)" width="1.144" height="30.602"></rect></g><g><rect x="44.179" y="26.572" transform="matrix(-0.7071 -0.7071 0.7071 -0.7071 46.7855 103.1243)" width="1.142" height="30.602"></rect></g><g><rect x="29.556" y="53.542" transform="matrix(-0.7075 -0.7067 0.7067 -0.7075 11.5167 117.7604)" width="1.141" height="5.911"></rect></g><g><rect x="59.222" y="41.615" transform="matrix(-0.708 -0.7063 0.7063 -0.708 61.9276 139.4404)" width="1.142" height="30.603"></rect></g><g><rect x="54.926" y="37.316" transform="matrix(-0.708 -0.7063 0.7063 -0.708 57.6247 129.0635)" width="1.142" height="30.603"></rect></g><g><rect x="50.626" y="33.018" transform="matrix(-0.7075 -0.7067 0.7067 -0.7075 53.2756 118.6873)" width="1.143" height="30.603"></rect></g><g><rect x="46.329" y="28.72" transform="matrix(-0.7075 -0.7067 0.7067 -0.7075 48.9761 108.3112)" width="1.143" height="30.602"></rect></g><g><rect x="42.033" y="24.422" transform="matrix(-0.708 -0.7063 0.7063 -0.708 44.7116 97.9367)" width="1.142" height="30.604"></rect></g><g><rect x="27.405" y="51.393" transform="matrix(-0.7075 -0.7067 0.7067 -0.7075 9.3639 112.5726)" width="1.143" height="5.91"></rect></g></g></g><g><g><defs><rect id="e" x="54.645" y="30.583" width="38.834" height="38.833"></rect></defs><defs><rect id="c" x="54.645" y="30.583" width="38.834" height="38.833"></rect></defs><clipPath id="d"><use xlink:href="#e" overflow="visible"></use></clipPath><clipPath id="a" clip-path="url(#d)"><use xlink:href="#c" overflow="visible"></use></clipPath><g clip-path="url(#a)"><g><g><g><rect x="82.863" y="65.254" transform="matrix(-0.7075 -0.7067 0.7067 -0.7075 85.5403 196.511)" width="1.141" height="30.602"></rect></g><g><rect x="78.56" y="60.955" transform="matrix(-0.7075 -0.7067 0.7067 -0.7075 81.2296 186.1313)" width="1.141" height="30.604"></rect></g><g><rect x="74.267" y="56.657" transform="matrix(-0.7071 -0.7071 0.7071 -0.7071 76.8755 175.7579)" width="1.142" height="30.602"></rect></g><g><rect x="69.969" y="52.359" transform="matrix(-0.7071 -0.7071 0.7071 -0.7071 72.5776 165.382)" width="1.142" height="30.602"></rect></g><g><rect x="65.671" y="48.062" transform="matrix(-0.7067 -0.7075 0.7075 -0.7067 68.2228 155.0086)" width="1.141" height="30.602"></rect></g><g><rect x="51.049" y="75.032" transform="matrix(-0.7067 -0.7075 0.7075 -0.7067 32.9203 169.6223)" width="1.143" height="5.91"></rect></g><g><rect x="80.714" y="63.105" transform="matrix(-0.7067 -0.7075 0.7075 -0.7067 83.2529 191.3255)" width="1.141" height="30.602"></rect></g><g><rect x="76.416" y="58.807" transform="matrix(-0.7075 -0.7067 0.7067 -0.7075 79.0875 180.9459)" width="1.141" height="30.602"></rect></g><g><rect x="72.118" y="54.509" transform="matrix(-0.7063 -0.708 0.708 -0.7063 74.604 170.574)" width="1.142" height="30.602"></rect></g><g><rect x="67.82" y="50.209" transform="matrix(-0.7071 -0.7071 0.7071 -0.7071 70.4278 160.1936)" width="1.142" height="30.604"></rect></g><g><rect x="63.523" y="45.912" transform="matrix(-0.7071 -0.7071 0.7071 -0.7071 66.1305 149.8189)" width="1.141" height="30.602"></rect></g><g><rect x="48.898" y="72.884" transform="matrix(-0.7067 -0.7075 0.7075 -0.7067 30.7678 164.4331)" width="1.141" height="5.91"></rect></g></g></g></g><g clip-path="url(#a)"><path d="M93.479,71.105H54.645c-0.934,0-1.688-0.758-1.688-1.688V30.583c0-0.933,0.755-1.688,1.688-1.688h38.834             c0.933,0,1.688,0.756,1.688,1.688v38.833C95.165,70.35,94.41,71.105,93.479,71.105z M56.331,67.729h35.457V32.271H56.331             V67.729z"></path></g></g></g></g></g></g></g></g></g></g></g></svg>